<?xml version="1.0" standalone="no"?>
<!DOCTYPE svg PUBLIC "-//W3C//DTD SVG 20010904//EN"
 "http://www.w3.org/TR/2001/REC-SVG-20010904/DTD/svg10.dtd">
<svg version="1.0" xmlns="http://www.w3.org/2000/svg"
 width="200.000000pt" height="200.000000pt" viewBox="0 0 200.000000 200.000000"
 preserveAspectRatio="xMidYMid meet">
<metadata>
Created by potrace 1.14, written by Peter Selinger 2001-2017
</metadata>
<g transform="translate(0.000000,200.000000) scale(0.100000,-0.100000)"
fill="#000000" stroke="none">
<path d="M922 1735 l-112 -75 0 -80 0 -79 -55 -33 -56 -33 3 -70 c4 -87 22
-92 26 -8 l3 62 54 33 55 33 0 80 0 80 92 60 c50 33 95 62 99 63 5 2 9 -41 9
-95 0 -98 0 -98 30 -118 23 -15 30 -28 30 -52 0 -23 5 -33 15 -33 11 0 15 11
15 38 0 31 -6 43 -30 60 l-30 23 0 109 c0 98 -2 110 -18 110 -9 0 -68 -34
-130 -75z"/>
<path d="M980 1655 c0 -8 9 -15 20 -15 11 0 20 7 20 15 0 8 -9 15 -20 15 -11
0 -20 -7 -20 -15z"/>
<path d="M983 1598 c2 -7 10 -13 17 -13 7 0 15 6 18 13 2 7 -5 12 -18 12 -13
0 -20 -5 -17 -12z"/>
<path d="M984 1549 c-10 -17 13 -36 27 -22 12 12 4 33 -11 33 -5 0 -12 -5 -16
-11z"/>
<path d="M987 1494 c-13 -13 -7 -24 14 -24 11 0 19 5 17 12 -5 14 -22 21 -31
12z"/>
<path d="M1040 1485 c0 -8 7 -15 15 -15 8 0 15 7 15 15 0 8 -7 15 -15 15 -8 0
-15 -7 -15 -15z"/>
<path d="M980 1425 c0 -8 9 -15 20 -15 11 0 20 7 20 15 0 8 -9 15 -20 15 -11
0 -20 -7 -20 -15z"/>
<path d="M1040 1425 c0 -8 7 -15 15 -15 8 0 15 7 15 15 0 8 -7 15 -15 15 -8 0
-15 -7 -15 -15z"/>
<path d="M1100 1410 c0 -27 -3 -30 -30 -30 l-30 0 0 -200 0 -200 -155 0 c-125
0 -155 3 -155 14 0 7 11 21 24 30 14 8 26 26 28 38 5 27 -16 104 -43 167 -17
39 -21 43 -34 30 -22 -22 -67 -169 -61 -195 4 -13 17 -31 31 -40 42 -28 31
-43 -32 -46 -32 -2 -58 -7 -58 -13 0 -11 798 -20 824 -10 11 4 12 8 3 17 -7 7
-12 20 -12 30 0 10 -11 24 -25 30 -14 6 -25 15 -25 19 0 18 -34 39 -65 39 -27
0 -39 -8 -64 -39 -17 -21 -31 -46 -31 -55 0 -13 -12 -16 -60 -16 l-60 0 0 185
0 185 100 0 100 0 0 -110 c0 -91 3 -110 15 -110 13 0 15 20 15 124 l0 125 -27
3 c-22 2 -29 9 -31 31 -3 27 -4 27 -73 27 l-69 0 0 -30z m118 -12 c-3 -7 -23
-14 -46 -16 -33 -2 -42 0 -42 12 0 12 11 16 46 16 32 0 44 -4 42 -12z m-478
-254 c16 -54 18 -69 7 -87 -12 -22 -12 -22 -15 6 -4 35 -32 36 -32 1 0 -23 -2
-25 -16 -13 -12 9 -14 23 -10 49 6 38 33 110 41 110 2 0 13 -30 25 -66z m574
-90 c9 -8 16 -22 16 -30 0 -8 9 -14 20 -14 11 0 20 -7 20 -15 0 -12 -15 -15
-75 -15 -76 0 -87 6 -62 36 48 59 56 63 81 38z"/>
<path d="M983 1368 c2 -7 10 -13 17 -13 7 0 15 6 18 13 2 7 -5 12 -18 12 -13
0 -20 -5 -17 -12z"/>
<path d="M984 1319 c-10 -17 13 -36 27 -22 12 12 4 33 -11 33 -5 0 -12 -5 -16
-11z"/>
<path d="M1100 1310 c0 -6 30 -10 70 -10 40 0 70 4 70 10 0 6 -30 10 -70 10
-40 0 -70 -4 -70 -10z"/>
<path d="M987 1264 c-13 -13 -7 -24 14 -24 11 0 19 5 17 12 -5 14 -22 21 -31
12z"/>
<path d="M1100 1255 c0 -12 14 -15 70 -15 56 0 70 3 70 15 0 12 -14 15 -70 15
-56 0 -70 -3 -70 -15z"/>
<path d="M980 1195 c0 -8 9 -15 20 -15 11 0 20 7 20 15 0 8 -9 15 -20 15 -11
0 -20 -7 -20 -15z"/>
<path d="M1100 1195 c0 -12 14 -15 70 -15 56 0 70 3 70 15 0 12 -14 15 -70 15
-56 0 -70 -3 -70 -15z"/>
<path d="M983 1138 c2 -7 10 -13 17 -13 7 0 15 6 18 13 2 7 -5 12 -18 12 -13
0 -20 -5 -17 -12z"/>
<path d="M1100 1140 c0 -6 30 -10 70 -10 40 0 70 4 70 10 0 6 -30 10 -70 10
-40 0 -70 -4 -70 -10z"/>
<path d="M987 1094 c-13 -13 -7 -24 14 -24 11 0 19 5 17 12 -5 14 -22 21 -31
12z"/>
<path d="M1100 1080 c0 -5 23 -10 50 -10 28 0 50 5 50 10 0 6 -22 10 -50 10
-27 0 -50 -4 -50 -10z"/>
<path d="M987 1034 c-13 -13 -7 -24 14 -24 11 0 19 5 17 12 -5 14 -22 21 -31
12z"/>
<path d="M1100 1025 c0 -10 10 -15 30 -15 20 0 30 5 30 15 0 10 -10 15 -30 15
-20 0 -30 -5 -30 -15z"/>
<path d="M670 680 c0 -113 1 -120 20 -120 19 0 20 7 20 105 0 69 4 105 11 105
6 0 13 -9 16 -20 8 -32 33 -24 33 10 0 35 -23 49 -51 31 -12 -7 -19 -7 -19 -1
0 5 -7 10 -15 10 -12 0 -15 -20 -15 -120z"/>
<path d="M817 782 c-13 -14 -17 -38 -17 -98 0 -90 15 -124 56 -124 27 0 64 32
64 55 0 22 -37 18 -43 -5 -9 -33 -37 -13 -37 25 0 32 2 34 38 37 36 3 37 4 40
47 2 30 -2 49 -14 62 -22 24 -66 24 -87 1z m61 -50 c3 -27 0 -32 -17 -32 -16
0 -21 6 -21 28 0 53 33 56 38 4z"/>
<path d="M960 680 c0 -113 1 -120 20 -120 19 0 20 7 20 100 0 83 3 102 16 107
26 10 34 -16 34 -114 0 -86 2 -93 20 -93 18 0 20 8 22 102 3 89 5 103 21 106
15 3 17 -7 17 -102 0 -99 1 -106 20 -106 19 0 20 7 20 108 0 71 -4 112 -12
120 -14 14 -54 16 -63 2 -4 -6 -13 -5 -25 2 -15 10 -27 10 -50 1 -16 -6 -30
-7 -30 -2 0 5 -7 9 -15 9 -12 0 -15 -20 -15 -120z"/>
<path d="M1234 779 c-28 -31 -28 -167 0 -198 34 -37 96 -18 96 30 0 26 -18 24
-40 -3 -25 -31 -32 -12 -28 82 3 73 19 103 33 61 9 -29 35 -27 35 2 0 48 -61
65 -96 26z"/>
</g>
</svg>
